<svg xmlns="http://www.w3.org/2000/svg" width="841.89" height="595.28"><path d="M470.689 233.523c.533 3.239-1.66 6.299-4.9 6.831l-125.089 20.587c-3.24.533-6.299-1.66-6.833-4.899l-13.018-79.099c-.533-3.239 1.661-6.299 4.901-6.832l125.089-20.586c3.24-.534 6.299 1.661 6.832 4.901l13.018 79.097z"/><linearGradient id="a" gradientUnits="userSpaceOnUse" x1="326.204" y1="197.449" x2="336.109" y2="197.449" gradientTransform="matrix(.987 -.162 .162 .987 -26.097 74.558)"><stop offset="0" stop-color="#fff"/><stop offset=".273"/></linearGradient><path opacity=".26" fill="url(#a)" d="M344.042 253.854c.526 3.199-1.674 6.224-4.914 6.758l1.96-.322c-3.24.532-6.293-1.628-6.819-4.826l-12.854-78.099c-.527-3.199 1.673-6.226 4.914-6.758l-1.96.322c3.24-.533 6.293 1.627 6.82 4.827l12.853 78.098z"/><path fill="#1C75BC" stroke="#000" stroke-miterlimit="10" d="M465.725 230.33c.479 2.92-1.498 5.677-4.418 6.157l-106.702 17.561c-2.92.48-5.677-1.497-6.158-4.417l-11.732-71.288c-.48-2.92 1.497-5.677 4.417-6.157l106.702-17.561c2.92-.48 5.677 1.497 6.157 4.417l11.734 71.288z"/><circle fill="#282627" cx="334.258" cy="215.356" r="3.204"/><radialGradient id="b" cx="332.68" cy="197.449" r="2.542" gradientTransform="matrix(.987 -.162 .162 .987 -26.097 74.558)" gradientUnits="userSpaceOnUse"><stop offset="0" stop-color="#fff"/><stop offset="1"/></radialGradient><circle opacity=".48" fill="url(#b)" cx="334.231" cy="215.361" r="2.542"/><path fill="#fff" d="M370.884 195.567c.071.432-.222.839-.653.911l-17.725 2.917c-.432.07-.839-.222-.911-.653l-3.072-18.664c-.071-.432.222-.84.653-.91l17.726-2.918c.431-.071.839.222.91.654l3.072 18.663z"/><path fill="#1C75BC" d="M369.398 192.043c.071.433-.221.84-.652.911l-16.121 2.653c-.432.07-.84-.222-.911-.653l-2.344-14.243c-.071-.432.222-.839.654-.91l16.12-2.653c.432-.07.839.222.91.653l2.344 14.242z"/><g><g fill="#fff"><polygon points="356.185,186.695 362.673,185.626 366.05,193.817 355.613,195.535"/><path d="M359.102 183.621c2.559-.421 3.371 1.589 3.573 2.006l-.002-.001-3.604-1.646-2.884 2.714v.001c.057-.46.204-2.627 2.759-3.048h.002l.156-.026z"/><polygon points="356.184,186.694 359.068,183.98 362.673,185.626 356.185,186.695"/></g></g><path fill="#1C75BC" d="M359.728 183.501c-.477-.058-1.244.116-1.5.273-1.11.684.182 2.745 2.42 1.637-.292-.002-1.025-.124-1.28-.525-.379-.597.053-.993.366-1.332l-.006-.053z"/><polygon stroke="#1C75BC" stroke-miterlimit="10" points="363.117,186.307 355.989,187.476 355.925,187.823 363.283,186.612" fill="none"/><path fill="#1C75BC" d="M360.471 192.548l-2.21-3.063s-.047-1.551 1.412-1.79c1.458-.24 1.925 1.208 1.925 1.208l-1.127 3.645z"/><path stroke="#1C75BC" stroke-miterlimit="10" d="M361.645 188.874c1.709-.281 1.444-2.245 1.444-2.245l-3.51.578-3.484.573s.348 1.925 2.057 1.644" fill="none"/><g fill="#1C75BC"><polygon points="357.94,193.737 358.384,196.436 360.86,194.629"/><polygon points="363.269,192.859 363.714,195.56 360.79,194.641"/></g><g fill="#fff"><path d="M374.774 176.943l.821 4.984-.278.046-.638-3.874c-.059-.355-.09-.724-.097-.723l-.007.002-.305.459-.704.965-.214-.148 1.223-1.678.199-.033zM380.675 178.532c.224 1.36-.363 2.722-1.788 2.956-1.424.234-2.417-.867-2.641-2.228-.224-1.36.364-2.723 1.788-2.957 1.424-.234 2.417.869 2.641 2.229zm-4.152.683c.201 1.218 1.045 2.221 2.32 2.011 1.282-.211 1.755-1.431 1.554-2.647-.2-1.219-1.038-2.221-2.32-2.01-1.274.209-1.754 1.427-1.554 2.646zM381.457 178.47c-.023-.143.073-.269.208-.291.143-.023.268.073.291.209.023.143-.073.267-.208.289-.143.023-.269-.073-.291-.207zm.375 2.278c-.023-.143.073-.268.208-.29.143-.023.268.072.291.208.023.143-.073.268-.208.29-.143.023-.269-.072-.291-.208zM382.452 176.908c.118-.971.727-1.451 1.567-1.59.962-.158 1.738.381 1.883 1.264.173 1.047-.538 1.705-1.028 2.24-.607.669-1.405 1.547-1.404 1.554l.008.007c.007-.001.268-.066.752-.146l2.208-.363.043.263-3.368.554-.037-.221 2.07-2.353c.327-.367.575-.906.48-1.483-.124-.754-.781-1.188-1.564-1.059-.797.132-1.26.61-1.334 1.361l-.276-.028zM387.083 177.309c.117-.268.543-.696 1.22-.808.983-.161 1.824.416 1.983 1.385.16.969-.443 1.799-1.425 1.961-.997.164-1.749-.312-2.051-1.132l.244-.113c.267.73.903 1.131 1.758.99.833-.137 1.332-.841 1.197-1.66s-.833-1.325-1.666-1.188c-.848.14-1.134.626-1.228.984l-.254-.031-.005-2.741 2.578-.425.043.263-2.372.391.003 1.134c.003.592-.038.972-.035.985l.01.005z"/></g><g fill="#fff"><path d="M376.966 184.571l.286 1.739c.124.754-.196 1.286-.966 1.413-.542.089-1.012-.152-1.226-.572l.155-.067c.189.378.606.559 1.045.486.667-.109.941-.562.833-1.216l-.289-1.756.162-.027zM379.731 186.158l-1.594.263-.256.978-.169.027.827-3.113.136-.022 1.781 2.685-.169.027-.556-.845zm-.09-.134l-.816-1.24-.185-.292h-.004l-.081.336-.376 1.437 1.462-.241zM382.745 183.621l.477 2.898-.149.024-1.993-1.931-.402-.4h-.005l.123.689.323 1.963-.157.025-.477-2.898.148-.023 1.982 1.915.415.399.004-.001-.125-.686-.321-1.95.157-.024zM385.737 183.128l.286 1.739c.131.795-.196 1.286-.946 1.41-.753.123-1.213-.238-1.344-1.033l-.286-1.739.157-.025.289 1.756c.114.691.508.995 1.158.888.654-.107.926-.521.813-1.213l-.289-1.756.162-.027zM388.499 184.716l-1.594.263-.256.977-.169.028.827-3.113.136-.022 1.781 2.684-.169.028-.556-.845zm-.091-.135l-.816-1.239-.184-.293-.004.001-.081.336-.375 1.437 1.46-.242zM391.458 185.164l-.909-1.051-.232.056-.621.103.189 1.15-.158.026-.477-2.898.779-.128c.654-.107 1.102.158 1.192.705.07.427-.123.756-.519.932l.942 1.074-.186.031zm-1.164-1.136c.575-.095.838-.435.766-.874-.079-.477-.463-.668-1.005-.579l-.621.103.239 1.453.621-.103zM393.709 181.816l-.899 1.59.246 1.494-.157.026-.246-1.494-1.361-1.219.191-.031.997.896.23.207h.003l.152-.271.654-1.167.19-.031zM395.986 181.441l.477 2.898-.162.026-.371-2.253-.057-.419-.004.001-.177.267-.41.562-.125-.087.711-.976.118-.019zM399.136 183.045l-.435.071.137.833-.153.025-.137-.834-1.606.265-.018-.106 1.321-2.229.116-.019.315 1.917.435-.071.025.148zm-.612-.053l-.178-1.084-.086-.599-.004.001-.262.477-.631 1.053-.247.385.005.003.542-.093.861-.143z"/></g><g fill="#fff"><path d="M401.088 180.311l.018.107-.709.116.315 1.917-.112.019-.315-1.917-.708.116-.018-.106 1.529-.252zM402.968 180.002l.333 2.023-.113.019-.166-1.012-1.281.21.167 1.012-.11.019-.333-2.023.11-.019.148.904 1.281-.21-.149-.904.113-.019z"/></g><path opacity=".05" fill="#fff" d="M345.87 232.385s24.615 14.084 39.721 8.327c15.107-5.757 45.483-50.593 55.86-54.382 10.376-3.789 16.021-5.61 16.021-5.61l3.098 18.814s-13.114-2.004-21.859 6.273c-8.746 8.277-37.819 28.521-43.374 32.705-5.555 4.185-38.545 6.047-42.927 2.902-4.382-3.143-6.54-9.029-6.54-9.029z"/><path opacity=".15" fill="#fff" d="M346.912 238.713s24.773 15.051 39.852 9.12c15.078-5.931 45.105-52.892 55.463-56.791 10.357-3.899 15.996-5.77 15.996-5.77l3.266 19.846s-13.15-2.226-21.835 6.416c-8.687 8.642-37.624 29.709-43.149 34.069-5.525 4.358-38.547 6.029-42.964 2.68-4.416-3.349-6.629-9.57-6.629-9.57z"/><rect x="381.445" y="195.778" transform="matrix(.983 -.186 .186 .983 -33.925 76.053)" opacity=".42" fill="#fff" width="14.375" height="46.349"/><circle fill="#fff" cx="385.798" cy="203.964" r="3.814"/><rect x="398.344" y="192.582" transform="matrix(.983 -.186 .186 .983 -33.028 79.109)" opacity=".42" fill="#fff" width="14.374" height="46.348"/><circle fill="#fff" cx="402.697" cy="200.768" r="3.813"/><rect x="415.244" y="189.385" transform="matrix(.983 -.186 .186 .983 -32.15 82.23)" opacity=".42" fill="#fff" width="14.374" height="46.349"/><circle fill="#fff" cx="419.596" cy="197.572" r="3.814"/><rect x="432.144" y="186.191" transform="matrix(.983 -.186 .186 .983 -31.245 85.252)" opacity=".42" fill="#fff" width="14.373" height="46.347"/><circle fill="#fff" cx="436.495" cy="194.376" r="3.814"/></svg>