<svg xmlns="http://www.w3.org/2000/svg" width="150" height="150"><g><path d="M61.077 14.659l-12.836 11.888-12.835 4.196-14.44 29.371-11.23 54.545 7.221 11.889h13.637l4.012-6.992 8.823-42.658-4.011 40.561 2.406 12.586s13.639 4.896 33.694 4.896l.802-112.588"/><polygon points="15.352,120.953 12.142,131.441 28.988,131.441 30.593,126.547"/><path d="M89.218 14.659l12.836 11.888 12.835 4.196 14.44 29.371 11.23 54.545-7.221 11.889h-13.637l-4.012-6.992-8.823-42.658 4.011 40.561-2.406 12.586s-13.639 4.896-33.694 4.896l-.801-112.59"/><polygon points="134.943,120.953 138.153,131.441 121.307,131.441 119.702,126.547"/><polyline stroke="#414042" stroke-miterlimit="10" points="48.241,26.547 63.483,26.547 74.714,34.239" fill="none"/><polyline stroke="#414042" stroke-miterlimit="10" points="101.099,26.547 85.857,26.547 74.627,34.239" fill="none"/><path fill="#414042" d="M75.354 34.498c2.21 7.346-1.75 21.126 5.676 25.962.499.325 2.182-.453 1.811-.694-7.258-4.728-3.385-18.572-5.555-25.786-.161-.534-2.086.007-1.932.518z"/><path fill="#414042" d="M73.349 33.578c9.586 9.22-1.258 19.23-4.86 28.493-.159.409 1.708.199 1.91-.32 3.691-9.489 14.503-19.484 4.765-28.85-.388-.374-2.162.343-1.815.677z"/><g stroke="#414042" stroke-miterlimit="10" fill="none"><path d="M40.22 116.756s19.253-3.496 19.253-15.385h15.242"/><path d="M109.13 116.756s-19.253-3.496-19.253-15.385h-15.242"/></g><path fill="#fff" d="M97.704 58.754c0 .234-.175.423-.391.423h-8.852c-.216 0-.391-.189-.391-.423v-10.081c0-.233.175-.422.391-.422h8.852c.216 0 .391.189.391.422v10.081z"/><path d="M97.304 56.773c0 .233-.176.423-.391.423h-8.051c-.215 0-.391-.189-.391-.423v-7.693c0-.233.176-.422.391-.422h8.051c.215 0 .391.189.391.422v7.693z"/><g><g fill="#fff"><polygon points="94.516,53.129 95.501,57.729 90.289,57.729 91.274,53.129 94.515,53.128"/><path d="M92.895 51.951l-1.62 1.178c.064-.236.31-1.364 1.586-1.364h.079c1.275 0 1.512 1.126 1.576 1.364h-.001l-1.62-1.178z"/><polygon points="92.895,51.951 94.515,53.128 91.274,53.129 91.274,53.129"/></g></g><path d="M93.254 51.756c-.228-.072-.614-.047-.751.014-.596.263-.132 1.46 1.046 1.071-.143-.027-.489-.154-.582-.387-.136-.347.106-.518.284-.669l.003-.029z"/><polygon points="94.677,53.524 91.117,53.522 91.059,53.7 94.733,53.7"/><path d="M92.891 56.578l-.829-1.802s.101-.819.829-.819l.84.802-.84 1.819z"/><path d="M93.756 54.901c.854 0 .882-.901.882-.901h-3.492s.015.966.868.966" fill="none"/><polygon points="91.564,56.984 91.564,58.442 92.914,57.706"/><polygon points="94.227,56.984 94.227,58.442 92.878,57.706"/><rect x="49.315" y="123.477" fill="#fff" width="5.75" height="11.406"/><path d="M53.962 129.886l-2.168-2.901-1.043 1.044v1.857h-.281v-5.181h.281v1.658l-.007 1.316h.007l.962-.969 2.005-2.006h.355l-2.08 2.08 2.309 3.101h-.34z"/></g></svg>