<svg xmlns="http://www.w3.org/2000/svg" width="150" height="150"><g><path d="M50.9 19.24s22.738 27.468 48.199 0l42.455 24.093-10.059 27.603-14.285-3.274 2.076 65.099h-88.573l2.445-65.099-14.654 3.274-10.059-27.603 42.455-24.093z"/><rect x="37.448" y="120.162" fill="#fff" width="5.75" height="11.406"/><path d="M42.095 126.571l-2.168-2.901-1.043 1.044v1.857h-.281v-5.181h.281v1.658l-.007 1.316h.007l.962-.969 2.005-2.006h.355l-2.08 2.08 2.309 3.101h-.34z"/></g><g><polygon fill="#414042" points="76.919,57.458 97.687,57.458 93.808,101.821 77,106.428"/><polygon opacity=".53" fill="#A7A9AC" points="60.647,63.923 92.566,63.923 92.001,70.226 67.758,70.226 68.324,76.609 91.597,76.609 89.738,96.327 76.647,99.963 63.637,96.407 62.667,86.226 69.132,86.226 69.617,91.316 76.647,93.256 83.678,91.155 84.405,83.074 62.344,83.074"/></g></svg>