<svg xmlns="http://www.w3.org/2000/svg" width="40" height="40"><g><rect x="12.231" y="15.941" fill="#fff" width="15.537" height="14.172"/><polygon opacity=".5" points="26.005,15.941 26.005,28.727 25.255,28.727 25.255,15.941 22.302,15.941 22.302,28.727 21.552,28.727 21.552,15.941 18.517,15.941 18.517,28.727 17.767,28.727 17.767,15.941 14.728,15.941 14.728,28.727 13.978,28.727 13.978,15.941 12.231,15.941 12.231,30.113 27.769,30.113 27.769,15.941"/><path d="M29.122 14.713c0 .395-.322.715-.717.715h-16.812c-.395 0-.715-.32-.715-.715v-2.041c0-.396.32-.716.715-.716h16.813c.395 0 .717.319.717.716v2.041zM16.704 12.241v-.58c0-.395.32-.716.715-.716h5.162c.395 0 .715.321.715.716v.58h1.029v-1.639c0-.396-.32-.716-.715-.716h-7.22c-.396 0-.715.32-.715.716v1.639h1.029z"/></g></svg>