<svg xmlns="http://www.w3.org/2000/svg" width="150" height="150"><path d="M50.9 19.24s22.738 27.468 48.199 0l42.455 24.093-10.059 27.603-14.285-3.274 2.076 65.099h-88.573l2.445-65.099-14.654 3.274-10.059-27.603 42.455-24.093z"/><path fill="#fff" d="M88.435 81.342c0 .602-.488 1.09-1.09 1.09h-24.69c-.602 0-1.089-.488-1.089-1.09v-25.998c0-.602.487-1.089 1.089-1.089h24.69c.602 0 1.09.487 1.09 1.089v25.998z"/><path d="M87.317 76.231c0 .602-.488 1.089-1.09 1.089h-22.455c-.602 0-1.09-.487-1.09-1.089v-19.84c0-.601.488-1.089 1.09-1.089h22.455c.602 0 1.09.488 1.09 1.089v19.84z"/><g><g fill="#fff"><path d="M75.02 63.794l-4.519 3.039c.179-.61.864-3.519 4.425-3.519h.219c3.561 0 4.215 2.904 4.396 3.518h-.003l-4.518-3.038z"/><polygon points="70.501,66.833 75.02,63.794 79.537,66.833 70.502,66.834"/><polygon points="70.502,66.834 79.537,66.833 79.54,66.834 82.29,78.695 67.754,78.695"/></g></g><path d="M76.021 63.292c-.635-.185-1.712-.121-2.095.036-1.659.679-.366 3.764 2.915 2.76-.395-.068-1.363-.397-1.618-.998-.381-.895.292-1.334.794-1.725l.004-.073z"/><polygon points="79.991,67.854 70.063,67.848 69.897,68.307 80.147,68.307"/><path d="M75.009 75.728l-2.313-4.648s.282-2.112 2.313-2.112l2.342 2.068-2.342 4.692z"/><path stroke="#010101" stroke-miterlimit="10" d="M77.332 71.297c2.383 0 2.309-2.797 2.309-2.797h-9.742999999999999s.041 3 2.423 3h.679" fill="none"/><polygon points="71.312,76.775 71.312,80.536 75.072,78.637"/><polygon points="78.733,76.775 78.733,80.536 74.974,78.637"/><rect x="37.448" y="120.162" fill="#fff" width="5.75" height="11.406"/><path d="M42.095 126.571l-2.168-2.901-1.043 1.044v1.857h-.281v-5.181h.281v1.658l-.007 1.316h.007l.962-.969 2.005-2.006h.355l-2.08 2.08 2.309 3.101h-.34z"/></svg>