<svg xmlns="http://www.w3.org/2000/svg" width="150" height="150"><g><path d="M50.9 19.24s22.738 27.468 48.199 0l42.455 24.093-10.059 27.603-14.285-3.274 2.076 65.099h-88.573l2.445-65.099-14.654 3.274-10.059-27.603 42.455-24.093z"/><rect x="37.448" y="120.162" fill="#fff" width="5.75" height="11.406"/><path d="M42.095 126.571l-2.168-2.901-1.043 1.044v1.857h-.281v-5.181h.281v1.658l-.007 1.316h.007l.962-.969 2.005-2.006h.355l-2.08 2.08 2.309 3.101h-.34z"/></g><g><g fill="#fff"><path d="M52.792 84.153c.235.19.475.345.721.462s.53.176.853.176c.352 0 .616-.08.792-.242.176-.161.264-.358.264-.594 0-.139-.037-.26-.11-.363-.073-.103-.167-.192-.28-.269-.114-.077-.244-.146-.391-.204l-.44-.176c-.191-.066-.381-.142-.572-.226-.191-.084-.361-.187-.512-.308s-.273-.263-.369-.424-.143-.355-.143-.583c0-.213.042-.412.127-.6.084-.187.205-.349.363-.484s.35-.241.578-.318c.227-.077.484-.115.77-.115.337 0 .647.059.929.176s.526.26.731.429l-.429.572c-.184-.14-.374-.253-.572-.341-.198-.089-.414-.133-.649-.133-.337 0-.585.077-.742.231-.158.154-.237.334-.237.539 0 .125.033.23.099.319.066.088.154.168.264.241.11.074.236.138.379.192l.445.171.578.231c.194.08.369.181.522.302s.28.27.379.446c.099.176.148.389.148.638 0 .22-.042.425-.126.616-.084.19-.209.359-.374.506s-.37.262-.616.347c-.246.084-.526.126-.842.126-.381 0-.744-.069-1.089-.209-.345-.139-.646-.315-.902-.528l.453-.603zM57.698 80.754h-.792v-.682l.836-.055.11-1.496h.759v1.496h1.441v.736h-1.441v2.971c0 .33.06.585.181.765s.335.269.644.269c.095 0 .198-.014.308-.044l.297-.099.176.682c-.147.052-.307.098-.479.138-.172.04-.343.061-.512.061-.286 0-.526-.044-.721-.132s-.351-.21-.472-.364c-.121-.153-.208-.341-.259-.561s-.077-.462-.077-.727v-2.958zM60.8 83.978c0-.587.262-1.036.786-1.348s1.359-.53 2.502-.654c0-.169-.016-.334-.049-.495-.033-.161-.092-.305-.176-.429-.084-.125-.196-.226-.335-.303-.14-.077-.319-.116-.539-.116-.315 0-.607.06-.875.177-.268.117-.508.249-.721.396l-.363-.627c.249-.161.554-.317.913-.468.359-.149.755-.225 1.188-.225.652 0 1.125.199 1.419.599.293.4.44.934.44 1.601v3.278h-.748l-.077-.638h-.022c-.257.213-.533.394-.831.544-.297.15-.61.226-.94.226-.455 0-.831-.132-1.127-.396-.297-.265-.445-.639-.445-1.122zm.89-.067c0 .309.09.528.27.66s.402.198.666.198c.257 0 .5-.061.731-.182s.475-.299.731-.533v-1.485c-.447.059-.825.128-1.133.209s-.556.176-.743.286c-.187.109-.321.236-.401.379-.08.144-.121.299-.121.468zM66.695 80.018h.748l.077.77h.033c.257-.257.526-.471.809-.644.282-.172.611-.258.985-.258.564 0 .977.176 1.237.527.26.353.391.873.391 1.563v3.388h-.902v-3.267c0-.507-.081-.871-.242-1.095-.162-.224-.418-.336-.77-.336-.279 0-.524.07-.737.209-.212.14-.455.345-.726.616v3.872h-.902v-5.345zM72.328 82.701c0-.433.064-.823.192-1.172.128-.348.299-.643.512-.885.212-.242.458-.43.737-.562s.572-.197.88-.197.576.055.803.164c.227.11.458.261.693.451l-.044-.913v-2.057h.913v7.832h-.748l-.077-.627h-.032c-.213.205-.457.383-.732.533-.275.15-.57.226-.885.226-.675 0-1.212-.242-1.611-.726-.402-.483-.601-1.172-.601-2.067zm.935-.011c0 .646.128 1.147.385 1.507s.62.539 1.089.539c.25 0 .484-.061.704-.182.22-.121.44-.306.66-.556v-2.794c-.228-.205-.445-.35-.654-.435-.209-.084-.424-.126-.644-.126-.213 0-.413.049-.6.148-.187.099-.351.238-.49.418s-.249.395-.33.644c-.08.251-.12.529-.12.837zM78.554 83.978c0-.587.262-1.036.786-1.348s1.359-.53 2.502-.654c0-.169-.016-.334-.049-.495s-.092-.305-.176-.429c-.084-.125-.196-.226-.336-.303-.139-.077-.318-.116-.539-.116-.314 0-.606.06-.874.177-.269.117-.508.249-.721.396l-.362-.627c.248-.161.553-.317.912-.468.359-.149.756-.225 1.188-.225.652 0 1.126.199 1.419.599.293.4.439.934.439 1.601v3.278h-.748l-.076-.638h-.022c-.257.213-.533.394-.831.544-.297.15-.609.226-.939.226-.455 0-.831-.132-1.128-.396-.297-.265-.445-.639-.445-1.122zm.89-.067c0 .309.09.528.27.66s.401.198.665.198c.258 0 .501-.061.732-.182.23-.121.475-.299.73-.533v-1.485c-.447.059-.824.128-1.133.209-.308.081-.555.176-.742.286-.188.109-.32.236-.401.379-.081.144-.121.299-.121.468zM84.449 80.018h.748l.077.968h.032c.184-.337.406-.605.666-.803.26-.198.545-.297.853-.297.213 0 .403.036.572.109l-.177.792-.241-.065-.274-.022c-.229 0-.465.092-.711.275-.245.183-.459.502-.643.957v3.432h-.902v-5.346zM87.771 82.701c0-.433.064-.823.192-1.172.128-.348.299-.643.512-.885.212-.242.458-.43.737-.562.278-.132.571-.197.879-.197.309 0 .576.055.804.164.228.11.458.261.692.451l-.043-.913v-2.057h.912v7.832h-.748l-.076-.627h-.032c-.213.205-.457.383-.732.533-.274.15-.569.226-.885.226-.675 0-1.212-.242-1.611-.726-.401-.483-.601-1.172-.601-2.067zm.936-.011c0 .646.127 1.147.385 1.507.256.359.619.539 1.088.539.25 0 .484-.061.705-.182.22-.121.439-.306.66-.556v-2.794c-.229-.205-.445-.35-.654-.435-.21-.084-.424-.126-.645-.126-.213 0-.412.049-.6.148-.187.099-.35.238-.489.418s-.249.395-.329.644c-.082.251-.121.529-.121.837zM94.118 84.153c.235.19.476.345.721.462s.53.176.853.176c.352 0 .616-.08.792-.242.176-.161.265-.358.265-.594 0-.139-.037-.26-.111-.363-.072-.103-.166-.192-.279-.269-.114-.077-.244-.146-.391-.204l-.44-.176c-.19-.066-.382-.142-.571-.226-.191-.084-.361-.187-.512-.308s-.273-.263-.369-.424-.143-.355-.143-.583c0-.213.042-.412.127-.6.084-.187.205-.349.362-.484s.351-.241.577-.318c.228-.077.484-.115.771-.115.337 0 .647.059.929.176.283.117.527.26.732.429l-.431.573c-.184-.14-.373-.253-.572-.341-.197-.089-.414-.133-.648-.133-.338 0-.585.077-.742.231-.158.154-.236.334-.236.539 0 .125.033.23.099.319.065.088.153.168.265.241.109.074.236.138.379.192l.445.171.578.231c.193.08.368.181.521.302.154.121.281.27.38.446.099.176.148.389.148.638 0 .22-.042.425-.126.616-.085.19-.209.359-.375.506-.164.146-.369.262-.615.347-.246.084-.526.126-.842.126-.381 0-.744-.069-1.089-.209-.345-.139-.646-.315-.901-.528l.449-.604z"/></g><g fill="#BCBEC0"><circle cx="87.481" cy="63.464" r="3.717"/><circle cx="92.992" cy="63.464" r="3.717"/><polygon points="83.899,64.562 90.267,74.433 96.574,64.562"/></g><g fill="#fff"><path d="M54.264 74.433l-2.051-8.084h1.104l.959 4.09c.24 1.008.456 2.016.6 2.795h.024c.132-.804.384-1.763.66-2.807l1.08-4.078h1.091l.983 4.103c.228.959.444 1.919.564 2.771h.024c.168-.888.396-1.787.647-2.795l1.067-4.078h1.067l-2.291 8.084h-1.091l-1.02-4.21c-.252-1.031-.42-1.822-.528-2.639h-.023c-.132.804-.324 1.596-.624 2.639l-1.151 4.21h-1.091zM63.252 71.722c.024 1.428.923 2.016 1.991 2.016.755 0 1.223-.132 1.607-.3l.192.755c-.372.168-1.019.372-1.943.372-1.787 0-2.854-1.188-2.854-2.938s1.032-3.118 2.723-3.118c1.907 0 2.399 1.655 2.399 2.723 0 .216-.012.372-.036.491h-4.079zm3.094-.755c.012-.66-.276-1.703-1.463-1.703-1.08 0-1.535.972-1.619 1.703h3.082zM68.676 65.917h1.043v3.646h.024c.372-.647 1.043-1.056 1.979-1.056 1.451 0 2.458 1.199 2.458 2.95 0 2.075-1.319 3.106-2.614 3.106-.84 0-1.511-.323-1.955-1.079h-.024l-.06.947h-.899c.024-.396.048-.983.048-1.499v-7.015zm1.044 6.188c0 .133.012.265.048.384.192.732.816 1.235 1.583 1.235 1.115 0 1.763-.899 1.763-2.23 0-1.163-.6-2.159-1.739-2.159-.708 0-1.379.504-1.595 1.296-.036.132-.06.275-.06.443v1.031z"/></g></g></svg>