<svg xmlns="http://www.w3.org/2000/svg" width="40" height="40"><g><polygon fill="#fff" points="21.055,11.956 12.736,26.889 18.694,30.313 27.02,15.385"/><path opacity=".5" d="M21.055 11.956l1.939-3.294s.671-1.193 1.989-.435l3.324 1.91c1.438.826.654 1.948.654 1.948l-1.942 3.3-5.964-3.429z"/><polygon opacity=".5" points="15.263,27.268 16.866,28.189 24.507,14.817 22.812,13.843"/><polygon opacity=".5" points="22.074,13.419 20.753,12.659 13.115,26.033 14.525,26.844"/><polygon opacity=".5" points="25.244,15.241 17.604,28.613 19.072,29.457 26.712,16.084"/><polygon points="12.736,26.889 18.694,30.313 13.464,32.025"/><polygon points="21.771,10.696 21.055,11.956 27.02,15.385 27.728,14.179"/></g></svg>