<svg xmlns="http://www.w3.org/2000/svg" width="81" height="80"><ellipse cx="40.5" cy="40" rx="40.5" ry="40"/><path fill="#fff" d="M39 50c0 1.657-1.343 3-3 3h-20c-1.657 0-3-1.343-3-3v-20c0-1.657 1.343-3 3-3h20c1.657 0 3 1.343 3 3v20z"/><path fill="#808080" d="M68 50c0 1.657-1.344 3-3 3h-20c-1.656 0-3-1.343-3-3v-20c0-1.657 1.344-3 3-3h20c1.656 0 3 1.343 3 3v20z"/><path d="M35 40.25c0 .967-.783 1.75-1.75 1.75h-14.5c-.967 0-1.75-.783-1.75-1.75v-.5c0-.966.783-1.75 1.75-1.75h14.5c.967 0 1.75.784 1.75 1.75v.5z"/><path fill="#fff" d="M65 40.25c0 .967-.783 1.75-1.75 1.75h-14.5c-.967 0-1.75-.783-1.75-1.75v-.5c0-.966.783-1.75 1.75-1.75h14.5c.967 0 1.75.784 1.75 1.75v.5z"/><path fill="#fff" d="M55.75 49c-.967 0-1.75-.783-1.75-1.75v-14.5c0-.967.783-1.75 1.75-1.75h.5c.967 0 1.75.783 1.75 1.75v14.5c0 .967-.783 1.75-1.75 1.75h-.5z"/></svg>