<?xml version="1.0" encoding="utf-8"?>
<!-- Generator: Adobe Illustrator 15.0.0, SVG Export Plug-In . SVG Version: 6.00 Build 0)  -->
<!DOCTYPE svg PUBLIC "-//W3C//DTD SVG 1.1//EN" "http://www.w3.org/Graphics/SVG/1.1/DTD/svg11.dtd">
<svg version="1.1" id="Calque_1" xmlns="http://www.w3.org/2000/svg" xmlns:xlink="http://www.w3.org/1999/xlink" x="0px" y="0px"
	 width="130px" height="125px" viewBox="0 0 130 125" enable-background="new 0 0 130 125" xml:space="preserve">
<path fill="#FFFFFF" d="M4.621,124.666l17.612-89.179c0,0,6.895-35.111,42.425-35.111c35.529,0,42.007,34.274,42.007,34.274
	l17.211,90.015"/>
<path d="M58.639,0.687C48.675,1.954,44.6,27.616,79.79,27.616c0,0-27.519-9.284-2.953-25.765c0,0-3.888-1.289-8.957-1.423
	C63.461,0.311,60.958,0.392,58.639,0.687L58.639,0.687z"/>
<polygon points="20.944,42.011 108.072,42.011 108.896,46.33 20.091,46.33 "/>
<path fill="none" stroke="#000000" stroke-miterlimit="10" d="M20.479,46.33c0,0-1.958,27.398,45.214,27.398
	c43.205,0,42.686-27.398,42.686-27.398"/>
<path d="M44.274,71.229c0,0,1.551-18.667,19.78-18.667s20.168,18.667,20.168,18.667L64.247,110.79L44.274,71.229z"/>
</svg>
