<svg xmlns="http://www.w3.org/2000/svg" width="60" height="63.376"><path fill="#fff" d="M0 63.376l8.861-44.868s3.469-17.665 21.345-17.665c17.875 0 21.134 17.244 21.134 17.244l8.66 45.289"/><path d="M27.177 1.022c-5.013.638-7.063 13.549 10.642 13.549 0 0-13.845-4.671-1.485-12.963 0 0-1.956-.649-4.507-.716-2.223-.059-3.483-.018-4.65.13z"/><polygon points="8.212,21.791 52.048,21.791 52.463,23.963 7.783,23.963"/><path stroke="#000" stroke-width=".75" stroke-miterlimit="10" d="M7.978 23.963s-.985 13.784 22.749 13.784c21.737 0 21.476-13.784 21.476-13.784" fill="none"/><path d="M19.95 36.491s.78-9.392 9.952-9.392 10.146 9.392 10.146 9.392l-10.049 19.903-10.049-19.903z"/></svg>