<svg xmlns="http://www.w3.org/2000/svg" width="40" height="40"><g><path fill="#fff" stroke="#A7A9AC" stroke-miterlimit="10" d="M23.183 10h-9.297c-.193 0-.35.157-.35.35v15.678c0 .192.156.35.35.35h12.173c.193 0 .351-.157.351-.35v-13.076l-3.227-2.952z"/><path d="M23.587 12.952h2.877l-3.227-2.952v2.602c0 .193.157.35.35.35z"/><path opacity=".5" d="M31.315 28.391c0 .27-.219.488-.488.488h-21.655c-.269 0-.487-.219-.487-.488v-8.576c0-.271.219-.488.487-.488h21.655c.27 0 .488.218.488.488v8.576z"/><path d="M29.837 29.546c0 .25-.203.454-.455.454h-18.764c-.251 0-.455-.204-.455-.454 0-.253.204-.455.455-.455h18.764c.252 0 .455.202.455.455z"/><path fill="#fff" d="M30.426 20.458c0 .253-.205.458-.459.458h-1.082c-.254 0-.459-.205-.459-.458s.205-.458.459-.458h1.082c.254 0 .459.205.459.458z"/><circle fill="#fff" cx="27.287" cy="20.459" r=".458"/></g></svg>