<svg xmlns="http://www.w3.org/2000/svg" width="150" height="150"><g><path d="M50.9 19.24s22.738 27.468 48.199 0l42.455 24.093-10.059 27.603-14.285-3.274 2.076 65.099h-88.573l2.445-65.099-14.654 3.274-10.059-27.603 42.455-24.093z"/><rect x="37.448" y="120.162" fill="#fff" width="5.75" height="11.406"/><path d="M42.095 126.571l-2.168-2.901-1.043 1.044v1.857h-.281v-5.181h.281v1.658l-.007 1.316h.007l.962-.969 2.005-2.006h.355l-2.08 2.08 2.309 3.101h-.34z"/></g><g fill="#fff"><path d="M60.198 70.472l6.809 3.773c.342.191.569.362.682.513.112.15.169.342.169.574 0 .294-.106.549-.318.763-.212.217-.458.324-.738.324-.185 0-.461-.104-.831-.309l-10.141-5.638 10.141-5.64c.369-.198.643-.297.82-.297.287 0 .537.106.749.318s.318.465.318.759c0 .232-.057.424-.169.574-.113.15-.34.321-.682.513l-6.809 3.773zM71.754 67.581v1.568c.513-.621 1.063-1.09 1.651-1.404s1.282-.472 2.082-.472c.847 0 1.63.198 2.348.595s1.272.948 1.667 1.656c.393.707.589 1.451.589 2.23 0 1.237-.442 2.295-1.327 3.173-.887.879-1.975 1.317-3.267 1.317-1.538 0-2.786-.625-3.743-1.875v5.188h2.092c.205 0 .352.039.441.119.089.078.133.182.133.313 0 .123-.044.225-.133.307s-.236.123-.441.123h-4.112c-.205 0-.352-.039-.441-.117s-.133-.184-.133-.313c0-.131.044-.234.133-.313.089-.08.236-.119.441-.119h1.159v-11.105h-1.159c-.205 0-.352-.041-.441-.123s-.133-.188-.133-.317c0-.123.044-.226.133-.308s.236-.123.441-.123h2.02zm7.465 4.173c0-.991-.36-1.841-1.082-2.549-.721-.707-1.601-1.061-2.64-1.061-1.046 0-1.931.355-2.656 1.066s-1.087 1.559-1.087 2.543c0 .991.362 1.842 1.087 2.553s1.61 1.066 2.656 1.066c1.032 0 1.911-.354 2.636-1.062.724-.705 1.086-1.558 1.086-2.556zM89.822 70.472l-6.809-3.773c-.342-.191-.57-.362-.682-.513-.113-.15-.17-.342-.17-.574 0-.294.105-.547.318-.759.211-.212.461-.318.748-.318.178 0 .451.099.82.297l10.141 5.64-10.141 5.639c-.369.205-.643.309-.82.309-.287 0-.537-.105-.748-.318-.213-.211-.318-.468-.318-.769 0-.232.057-.424.17-.574.111-.15.34-.321.682-.513l6.809-3.774z"/></g></svg>