<svg xmlns="http://www.w3.org/2000/svg" width="342.941" height="471.177"><polygon fill="#414042" points="82.344,265.273 262.064,265.273 278.009,438.74 183.484,438.74 172.059,374.576 157.519,438.74 65.07,438.74"/><path d="M171.827 62.464c38.928 0 52.666-26.206 52.666-26.206l92.356 52.41-21.882 60.047-28.494-7.125 1.936 141.616h-96.879l.297-220.742"/><path d="M172.307 62.464c-38.925 0-52.664-26.206-52.664-26.206l-92.356 52.41 21.879 60.047 28.495-7.125-1.935 141.616h96.879l-.298-220.742"/><polygon fill="#414042" points="171.527,123.815 216.705,123.815 208.266,220.323 171.704,230.344"/><polygon opacity=".72" fill="#A7A9AC" points="136.13,137.879 205.567,137.879 204.336,151.59 151.598,151.59 152.83,165.477 203.458,165.477 199.415,208.371 170.937,216.28 142.633,208.545 140.523,186.396 154.587,186.396 155.643,197.471 170.937,201.69 186.23,197.12 187.813,179.541 139.82,179.541"/><rect x="87.131" y="267.427" fill="#fff" width="8.773" height="16.425"/><path d="M94.224 276.656l-3.309-4.175-1.592 1.502v2.673h-.429v-7.455h.429v2.386l-.011 1.896h.011c.012 0 .96-.916 1.468-1.396l3.06-2.886h.542l-3.173 2.992 3.523 4.463h-.519z"/><g stroke="#6D6E71" stroke-width=".25" stroke-miterlimit="10" fill="none"><line x1="75.13" y1="275.807" x2="76.13" y2="275.807"/><line stroke-dasharray="2.0085,2.0085" x1="78.139" y1="275.807" x2="265.932" y2="275.807"/><line x1="266.936" y1="275.807" x2="267.936" y2="275.807"/></g><g stroke="#6D6E71" stroke-width=".25" stroke-miterlimit="10" fill="none"><line x1="287.361" y1="146.31" x2="287.711" y2="145.374"/><line stroke-dasharray="2.0554,2.0554" x1="288.432" y1="143.449" x2="309.686" y2="86.663"/><line x1="310.046" y1="85.7" x2="310.397" y2="84.764"/></g><g stroke="#6D6E71" stroke-width=".25" stroke-miterlimit="10" fill="none"><line x1="56.231" y1="146.203" x2="55.881" y2="145.266"/><line stroke-dasharray="2.0554,2.0554" x1="55.16" y1="143.341" x2="33.906" y2="86.555"/><line x1="33.546" y1="85.592" x2="33.195" y2="84.656"/></g><path fill="#414042" d="M119.643 36.258l-6.903 3.909s18.5 30.699 57.355 30.604c42.41-.104 61.785-30.354 61.785-30.354l-7.387-4.158s-12.488 24.658-54.182 25.214c-36.348.484-50.668-25.215-50.668-25.215z"/><polygon opacity=".48" points="65.07,438.74 66.162,426.564 159.169,426.564 157.519,438.74"/><polygon opacity=".48" points="276.869,438.74 275.77,426.564 182.071,426.564 183.732,438.74"/><rect x="75.815" y="422.741" fill="#fff" width="8.542" height="16.945"/><path d="M82.722 432.263l-3.223-4.313-1.551 1.551v2.762h-.418v-7.701h.418v2.465c0 1.21-.022 1.958-.011 1.958h.011l1.43-1.441 2.981-2.981h.528l-3.091 3.092 3.433 4.609h-.507z"/><polygon opacity=".48" points="268.959,338.452 263.766,283.65 210.359,283.47 210.218,319.571"/><polygon opacity=".48" points="75.218,338.452 80.412,283.65 133.819,283.47 133.959,319.571"/><g opacity=".52"><polygon points="172.059,374.576 172.059,283.207 184.343,283.207 184.343,337.055"/><g stroke="#000" stroke-miterlimit="10" fill="none"><polyline points="172.526,373.15 172.059,374.576 172.059,373.076"/><line stroke-dasharray="3.0472,3.0472" x1="172.059" y1="370.029" x2="172.059" y2="286.23"/><polyline points="172.059,284.707 172.059,283.207 173.559,283.207"/><line stroke-dasharray="3.0949,3.0949" x1="176.654" y1="283.207" x2="181.296" y2="283.207"/><polyline points="182.843,283.207 184.343,283.207 184.343,284.707"/><polyline stroke-dasharray="2.9138,2.9138" points="184.343,287.621 184.343,337.055 172.979,371.766"/></g></g></svg>