<svg xmlns="http://www.w3.org/2000/svg" width="80.625" height="13.5"><polygon fill="#ccc" points="7.096,0 9.289,4.443 14.192,5.156 10.644,8.613 11.481,13.5 7.096,11.192 2.71,13.5 3.547,8.613 0,5.156 4.903,4.443"/><polygon fill="#ccc" points="23.704,0 25.897,4.443 30.8,5.156 27.252,8.613 28.09,13.5 23.704,11.192 19.319,13.5 20.156,8.613 16.608,5.156 21.512,4.443"/><polygon fill="#ccc" points="40.313,0 42.504,4.443 47.411,5.156 43.861,8.613 44.7,13.5 40.313,11.192 35.927,13.5 36.765,8.613 33.217,5.156 38.121,4.443"/><polygon fill="#ccc" points="56.92,0 59.114,4.443 64.018,5.156 60.469,8.613 61.307,13.5 56.92,11.192 52.536,13.5 53.374,8.613 49.825,5.156 54.729,4.443"/><polygon fill="#ccc" points="73.53,0 75.723,4.443 80.625,5.156 77.079,8.613 77.917,13.5 73.53,11.192 69.145,13.5 69.982,8.613 66.434,5.156 71.336,4.443"/></svg>