<svg xmlns="http://www.w3.org/2000/svg" width="150" height="150"><g><polygon points="100.875,25.982 65.524,13.957 55.32,50.766 40.014,70.809 33.089,77.369 30.538,90.854 53.498,109.075 74.635,130.212 84.839,136.043 112.901,136.043 119.462,131.672 119.097,127.66 104.52,119.28 94.679,111.99 83.018,85.387 83.018,73.725"/><rect x="71.174" y="16.401" transform="matrix(-.935 -.354 .354 -.935 134.378 65.368)" fill="#fff" width="4.005" height="7.947"/><path d="M73.717 23.28l-.696-2.426-.938.422-.458 1.21-.184-.069 1.279-3.376.184.069-.409 1.081-.331.857.006.001.866-.394 1.802-.812.231.087-1.869.843.739 2.591-.222-.084z"/><polygon fill="#414042" points="33.089,77.369 30.538,90.854 44.023,101.423 46.574,85.75"/></g></svg>