<svg xmlns="http://www.w3.org/2000/svg" width="150" height="150"><g><path d="M50.9 19.24s22.738 27.468 48.199 0l42.455 24.093-10.059 27.603-14.285-3.274 2.076 65.099h-88.573l2.445-65.099-14.654 3.274-10.059-27.603 42.455-24.093z"/><rect x="37.448" y="120.162" fill="#fff" width="5.75" height="11.406"/><path d="M42.095 126.571l-2.168-2.901-1.043 1.044v1.857h-.281v-5.181h.281v1.658l-.007 1.316h.007l.962-.969 2.005-2.006h.355l-2.08 2.08 2.309 3.101h-.34z"/></g><g fill="#fff"><path d="M44.939 73.079l2.993-1.668.109-.04.097.042.042.097c0 .055-.038.103-.112.145l-2.564 1.424 2.561 1.424c.075.042.112.09.112.145l-.041.097-.098.041-.108-.04-2.991-1.667zM50.629 74.414h.128c.094 0 .175.034.242.101s.101.148.101.242c0 .097-.034.178-.102.244-.068.066-.148.099-.241.099h-.128c-.095 0-.175-.034-.242-.101s-.101-.147-.101-.239c0-.099.034-.181.102-.247.068-.066.149-.099.241-.099zm.329-3.269l-.125 2.235-.044.148-.094.043-.097-.043-.045-.148-.122-2.235-.007-.116c0-.075.026-.137.078-.188.052-.05.116-.076.193-.076s.141.025.191.076c.051.051.076.115.076.191l-.004.113zM53.658 74.724v-3.303h-.234l-.142-.038-.042-.101.042-.101.142-.038h1.49c.233 0 .445.048.638.145s.339.207.44.33c.173.208.305.43.396.663.063.169.095.369.095.6v.382c0 .284-.063.559-.188.824-.125.266-.334.498-.626.695-.218.145-.469.218-.755.218h-1.49l-.142-.04-.042-.099.042-.1.142-.038h.234zm.277 0h1.005c.233 0 .451-.076.654-.228.203-.151.356-.333.458-.545.103-.212.153-.421.153-.628v-.501c0-.171-.027-.324-.082-.458-.079-.195-.191-.381-.336-.557-.079-.097-.196-.185-.35-.265s-.319-.12-.498-.12h-1.005v3.302zM60.488 73.083c0 .369-.075.711-.224 1.027s-.355.561-.618.737-.545.263-.846.263c-.446 0-.839-.189-1.179-.569-.339-.379-.509-.865-.509-1.458 0-.596.17-1.082.509-1.46.339-.378.732-.567 1.179-.567.301 0 .582.088.844.264.261.176.467.421.618.735.151.313.226.656.226 1.028zm-.28 0c0-.451-.131-.855-.392-1.213-.262-.358-.6-.538-1.015-.538-.389 0-.722.171-.998.513-.275.342-.414.754-.414 1.238 0 .514.145.935.434 1.261.289.327.615.49.978.49.415 0 .753-.179 1.015-.536.261-.358.392-.763.392-1.215zM64.064 71.523v-.194l.038-.142.101-.042.101.042.038.142v.768l-.038.145-.101.042-.094-.04-.044-.128c-.011-.185-.111-.348-.3-.491-.255-.195-.545-.293-.87-.293-.213 0-.414.047-.603.142-.141.068-.253.151-.336.25-.145.171-.26.361-.346.57-.062.154-.092.327-.092.521v.485c0 .413.149.771.449 1.076.299.304.646.457 1.042.457.237 0 .45-.052.638-.155.188-.103.37-.259.545-.468l.125-.069.096.036.036.092c0 .051-.047.127-.142.231-.18.202-.383.354-.608.457s-.453.153-.684.153c-.2 0-.403-.039-.61-.116-.158-.059-.289-.128-.392-.208s-.23-.212-.381-.4c-.15-.188-.253-.361-.308-.521-.055-.159-.083-.334-.083-.525v-.564c0-.272.073-.551.219-.835.146-.285.346-.503.6-.656.254-.152.529-.229.826-.229.455-.001.849.155 1.178.467zM67.035 71.421v3.303h.718l.142.038.042.1-.042.099-.142.04h-1.717l-.142-.04-.043-.099.043-.1.142-.038h.719v-3.303h-1.135v.959l-.038.145-.101.043-.099-.043-.04-.145v-1.236h3.102v1.236l-.038.145-.101.043-.101-.043-.038-.145v-.959h-1.131zM71.095 73.261v1.463h.718l.142.038.043.1-.043.099-.142.04h-1.717l-.142-.04-.043-.099.042-.1.143-.038h.719v-1.463l-1.216-1.839h-.165l-.142-.038-.043-.101.043-.101.142-.038h.762l.142.038.043.101-.043.101-.142.038h-.273l1.035 1.559 1.012-1.559h-.271l-.145-.038-.043-.101.043-.101.145-.038h.758l.142.038.043.101-.043.101-.142.038h-.165l-1.197 1.839zM74.398 73.419v1.305h.95l.142.038.043.1-.043.099-.142.04h-1.599l-.142-.04-.043-.099.043-.1.142-.038h.373v-3.303h-.373l-.142-.038-.043-.101.043-.101.142-.038h1.609c.38 0 .69.112.932.336.24.224.36.487.36.788 0 .178-.039.338-.116.481-.078.143-.173.255-.283.336-.164.123-.334.213-.51.27-.127.042-.286.063-.475.063h-.868zm0-.277h.884c.204 0 .396-.046.575-.137.178-.091.309-.203.392-.334s.124-.266.124-.402c0-.218-.094-.414-.281-.587-.186-.174-.422-.26-.708-.26h-.986v1.72zM78.149 73.139v1.585h2.13v-.817l.037-.142.102-.042.1.042.038.142v1.094h-3.056l-.142-.04-.043-.099.043-.1.142-.038h.373v-3.303h-.373l-.142-.038-.043-.101.043-.101.142-.038h2.91v.953l-.037.142-.101.043-.101-.043-.038-.142v-.676h-1.984v1.44h.992v-.313l.04-.142.102-.043.1.043.039.142v.903l-.039.142-.1.043-.102-.043-.04-.142v-.313h-.992zM86.242 70.864v1.704c.176-.191.344-.326.506-.404s.342-.117.543-.117c.215 0 .397.038.549.114.15.076.275.192.377.35.101.157.151.322.151.496v1.717h.31l.144.038.042.1-.042.099-.144.04h-.899l-.146-.04-.043-.099.043-.1.146-.038h.31v-1.698c0-.2-.072-.367-.216-.501-.144-.134-.345-.201-.602-.201-.202 0-.374.05-.518.148-.103.07-.273.236-.511.498v1.754h.313l.143.038.043.1-.043.099-.143.04h-.902l-.143-.04-.043-.099.043-.1.143-.038h.313v-3.58h-.372l-.142-.04-.043-.103.043-.099.142-.04h.648zM90.636 72.146h1.503l.143.04.042.102-.042.099-.143.04h-1.503v1.842c0 .161.064.294.192.402.129.107.317.162.566.162.186 0 .389-.028.605-.084.218-.056.387-.12.508-.19l.109-.042.092.041.039.097-.043.092c-.07.073-.24.151-.512.236s-.531.127-.779.127c-.324 0-.58-.076-.771-.228s-.287-.356-.287-.613v-1.842h-.511l-.142-.04-.043-.103.043-.099.142-.04h.511v-.817l.039-.142.1-.042.102.042.04.142v.818zM93.994 72.146v.28c.236-.253.473-.379.709-.379.143 0 .269.038.376.114.108.076.198.191.271.345.123-.154.248-.269.374-.345s.253-.114.381-.114c.2 0 .359.065.478.195.156.167.234.349.234.547v1.935h.234l.141.038.043.1-.043.099-.141.04h-.512v-2.186c0-.141-.043-.257-.128-.349-.086-.092-.185-.139-.297-.139-.101 0-.208.038-.319.114-.112.076-.24.225-.383.447v1.836h.23l.143.038.043.1-.043.099-.143.04h-.511v-2.166c0-.147-.044-.269-.13-.364-.087-.096-.184-.144-.292-.144-.099 0-.196.032-.294.096-.133.09-.273.245-.422.465v1.836h.234l.143.038.043.1-.043.099-.143.04h-.744l-.143-.04-.043-.099.043-.1.143-.038h.233v-2.297h-.233l-.143-.04-.043-.103.043-.099.143-.04h.511zM99.447 70.864v3.86h1.088l.145.038.043.1-.043.099-.145.04h-2.453l-.142-.04-.043-.099.043-.1.142-.038h1.088v-3.58h-.797l-.145-.04-.044-.103.042-.099.146-.04h1.075zM105.061 73.079l-2.994 1.668-.107.04-.098-.041-.041-.097c0-.055.037-.104.111-.145l2.564-1.424-2.561-1.424c-.075-.042-.112-.09-.112-.145l.041-.097.097-.042.109.04 2.991 1.667z"/></g></svg>