<svg xmlns="http://www.w3.org/2000/svg" width="80.625" height="13.5"><polygon fill="#DD9F2F" points="7.1,0 9.3,4.4 14.2,5.2 10.6,8.6 11.5,13.5 7.1,11.201 2.7,13.5 3.5,8.6 0,5.2 4.9,4.4"/><polygon fill="#DD9F2F" points="23.7,0 25.9,4.4 30.8,5.2 27.3,8.6 28.1,13.5 23.7,11.201 19.3,13.5 20.2,8.6 16.6,5.2 21.5,4.4"/><polygon fill="#DD9F2F" points="40.3,0 42.5,4.4 47.4,5.2 43.9,8.6 44.7,13.5 40.3,11.201 35.9,13.5 36.8,8.6 33.2,5.2 38.1,4.4"/><polygon fill="#DD9F2F" points="56.9,0 59.1,4.4 64,5.2 60.5,8.6 61.299,13.5 56.9,11.201 52.5,13.5 53.4,8.6 49.799,5.2 54.7,4.4"/><polygon fill="#DD9F2F" points="73.5,0 75.7,4.4 80.6,5.2 77.1,8.6 77.9,13.5 73.5,11.201 69.1,13.5 70,8.6 66.4,5.2 71.299,4.4"/></svg>