<svg xmlns="http://www.w3.org/2000/svg" width="22" height="24"><path fill="#231F20" d="M20.7 1.9h-19.4c-.7 0-1.3.6-1.3 1.3v19.5c0 .7.6 1.3 1.3 1.3h19.4c.7 0 1.3-.6 1.3-1.3v-19.5c0-.7-.6-1.3-1.3-1.3zm-15.3 3.8c-.8 0-1.4-.6-1.4-1.4s.6-1.3 1.4-1.3 1.4.6 1.4 1.4-.7 1.3-1.4 1.3zm5.6 0c-.8 0-1.4-.6-1.4-1.4s.6-1.3 1.4-1.3 1.4.6 1.4 1.4-.6 1.3-1.4 1.3zm5.6 0c-.8 0-1.4-.6-1.4-1.4s.7-1.3 1.4-1.3 1.4.6 1.4 1.3-.6 1.4-1.4 1.4z"/><path fill="#fff" d="M20.1 20.5c0 .7-.6 1.3-1.3 1.3h-15.6c-.7 0-1.3-.6-1.3-1.3v-12.2c0-.7.6-1.3 1.3-1.3h15.5c.7 0 1.3.6 1.3 1.3l.1 12.2z"/><path fill="#808080" d="M6.5 4.2c0 .6-.5 1.1-1.1 1.1-.6 0-1.1-.5-1.1-1.1v-3.1c-.1-.6.4-1.1 1.1-1.1.6 0 1.1.5 1.1 1.1v3.1z"/><path fill="#808080" d="M12.1 4.2c0 .6-.5 1.1-1.1 1.1-.6 0-1.1-.5-1.1-1.1v-3.1c0-.6.5-1.1 1.1-1.1.6 0 1.1.5 1.1 1.1v3.1z"/><path fill="#808080" d="M17.8 4.2c0 .6-.5 1.1-1.1 1.1-.6 0-1.1-.5-1.1-1.1v-3.1c-.1-.6.4-1.1 1-1.1s1.1.5 1.1 1.1v3.1z"/><path fill="#808080" d="M10.6 14.8l-1.3.6-.3-1.2 1.8-.8h1.3v6.9h-1.5v-5.5z"/><path fill="#231F20" d="M19.2 9.2c0 .7-.6 1.2-1.2 1.2h-13.9c-.7 0-1.2-.5-1.2-1.2-.1-.7.5-1.2 1.2-1.2h13.9c.6 0 1.2.5 1.2 1.2z"/></svg>