<svg xmlns="http://www.w3.org/2000/svg" width="81" height="80"><ellipse cx="40.5" cy="40" rx="40.5" ry="40"/><path fill="#fff" d="M37 28.25c0 .967-.783 1.75-1.75 1.75h-16.5c-.967 0-1.75-.783-1.75-1.75v-.5c0-.966.783-1.75 1.75-1.75h16.5c.967 0 1.75.784 1.75 1.75v.5z"/><path fill="#fff" d="M64 40.25c0 .967-.783 1.75-1.75 1.75h-43.5c-.967 0-1.75-.783-1.75-1.75v-1.5c0-.966.783-1.75 1.75-1.75h43.5c.967 0 1.75.784 1.75 1.75v1.5z"/><path fill="#fff" d="M64 49.25c0 .967-.783 1.75-1.75 1.75h-43.5c-.967 0-1.75-.783-1.75-1.75v-1.5c0-.967.783-1.75 1.75-1.75h43.5c.967 0 1.75.783 1.75 1.75v1.5z"/><path fill="#fff" d="M64 58.25c0 .967-.783 1.75-1.75 1.75h-43.5c-.967 0-1.75-.783-1.75-1.75v-1.5c0-.967.783-1.75 1.75-1.75h43.5c.967 0 1.75.783 1.75 1.75v1.5z"/><path fill="#fff" d="M37 22.25c0 .967-.783 1.75-1.75 1.75h-16.5c-.967 0-1.75-.783-1.75-1.75v-.5c0-.966.783-1.75 1.75-1.75h16.5c.967 0 1.75.784 1.75 1.75v.5z"/></svg>