<svg xmlns="http://www.w3.org/2000/svg" width="81" height="80"><ellipse cx="40.5" cy="40" rx="40.5" ry="40"/><path fill="#fff" d="M63 63c0 1.104-.896 2-2 2h-40c-1.104 0-2-.896-2-2v-46c0-1.104.896-2 2-2h40c1.104 0 2 .896 2 2v46z"/><path fill="#808080" d="M56 30c0 1.104-.896 2-2 2h-26c-1.104 0-2-.896-2-2v-4c0-1.104.896-2 2-2h26c1.104 0 2 .896 2 2v4z"/><path fill="#808080" d="M56 43c0 1.104-.896 2-2 2h-26c-1.104 0-2-.896-2-2v-4c0-1.104.896-2 2-2h26c1.104 0 2 .896 2 2v4z"/><path d="M52 58c0 1.104-.896 2-2 2h-18c-1.104 0-2-.896-2-2v-4c0-1.104.896-2 2-2h18c1.104 0 2 .896 2 2v4z"/></svg>