<svg xmlns="http://www.w3.org/2000/svg" width="81" height="80"><ellipse cx="40.5" cy="40" rx="40.5" ry="40"/><path fill="#808080" d="M63 60c0 1.104-.896 2-2 2h-41c-1.104 0-2-.896-2-2v-40c0-1.104.896-2 2-2h41c1.104 0 2 .896 2 2v40z"/><path fill="#fff" d="M33 37c0 .552-.448 1-1 1h-11c-.552 0-1-.448-1-1v-7c0-.552.448-1 1-1h11c.552 0 1 .448 1 1v7z"/><path fill="#fff" d="M47 37c0 .552-.447 1-1 1h-11c-.552 0-1-.448-1-1v-7c0-.552.448-1 1-1h11c.553 0 1 .448 1 1v7z"/><path fill="#fff" d="M61 37c0 .552-.447 1-1 1h-11c-.553 0-1-.448-1-1v-7c0-.552.447-1 1-1h11c.553 0 1 .448 1 1v7z"/><path d="M33 26c0 .552-.448 1-1 1h-11c-.552 0-1-.448-1-1v-2c0-.552.448-1 1-1h11c.552 0 1 .448 1 1v2zm14 0c0 .552-.447 1-1 1h-11c-.552 0-1-.448-1-1v-2c0-.552.448-1 1-1h11c.553 0 1 .448 1 1v2zm14 0c0 .552-.447 1-1 1h-11c-.553 0-1-.448-1-1v-2c0-.552.447-1 1-1h11c.553 0 1 .448 1 1v2z"/><path fill="#fff" d="M33 47c0 .553-.448 1-1 1h-11c-.552 0-1-.447-1-1v-7c0-.552.448-1 1-1h11c.552 0 1 .448 1 1v7z"/><path fill="#fff" d="M47 47c0 .553-.447 1-1 1h-11c-.552 0-1-.447-1-1v-7c0-.552.448-1 1-1h11c.553 0 1 .448 1 1v7z"/><path fill="#fff" d="M61 47c0 .553-.447 1-1 1h-11c-.553 0-1-.447-1-1v-7c0-.552.447-1 1-1h11c.553 0 1 .448 1 1v7z"/><path fill="#fff" d="M33 57c0 .553-.448 1-1 1h-11c-.552 0-1-.447-1-1v-7c0-.553.448-1 1-1h11c.552 0 1 .447 1 1v7z"/><path fill="#fff" d="M47 57c0 .553-.447 1-1 1h-11c-.552 0-1-.447-1-1v-7c0-.553.448-1 1-1h11c.553 0 1 .447 1 1v7z"/><path fill="#fff" d="M61 57c0 .553-.447 1-1 1h-11c-.553 0-1-.447-1-1v-7c0-.553.447-1 1-1h11c.553 0 1 .447 1 1v7z"/></svg>