<svg xmlns="http://www.w3.org/2000/svg" width="81" height="80"><ellipse cx="40.5" cy="40" rx="40.5" ry="40"/><path fill="#fff" d="M64 62c0 1.104-.896 2-2 2h-40c-1.104 0-2-.896-2-2v-46c0-1.104.896-2 2-2h40c1.104 0 2 .896 2 2v46z"/><path fill="#808080" d="M59 27c0 1.104-.896 2-2 2h-31c-1.104 0-2-.896-2-2v-6c0-1.104.896-2 2-2h31c1.104 0 2 .896 2 2v6z"/><path fill="#808080" d="M36 57c0 1.104-.896 2-2 2h-8c-1.104 0-2-.896-2-2v-23c0-1.104.896-2 2-2h8c1.104 0 2 .896 2 2v23z"/><path d="M59 57c0 1.104-.896 2-2 2h-15c-1.104 0-2-.896-2-2v-23c0-1.104.896-2 2-2h15c1.104 0 2 .896 2 2v23z"/></svg>