<?xml version="1.0" encoding="utf-8"?>
<!-- Generator: Adobe Illustrator 15.0.0, SVG Export Plug-In . SVG Version: 6.00 Build 0)  -->
<!DOCTYPE svg PUBLIC "-//W3C//DTD SVG 1.1//EN" "http://www.w3.org/Graphics/SVG/1.1/DTD/svg11.dtd">
<svg version="1.1" id="Calque_1" xmlns="http://www.w3.org/2000/svg" xmlns:xlink="http://www.w3.org/1999/xlink" x="0px" y="0px"
	 width="136px" height="141.5px" viewBox="0 0 136 141.5" enable-background="new 0 0 136 141.5" xml:space="preserve">
<g>
	<path fill="#A31D21" d="M69.115,86.548c17.723,0,50.918-19.13,50.918,12.941c0,32.069-50.918,27.288-50.918,27.288
		s-50.638-0.563-50.638-27.568C18.477,72.201,65.739,86.548,69.115,86.548z"/>
	<g>
		<path fill="#D1D3D4" d="M62.852,85.844c-5.454,1.038-12.206,5.453-3.377,8.31c3.637,1.039,7.531,1.819,11.426,1.819
			c4.675,0,12.465-4.676,5.195-8.83c-4.415-2.598-9.869,1.818-14.543-1.3"/>
	</g>
	<g>
		<path fill="#8DC63F" d="M76.896,35.596c-0.845-3.938,1.406-8.439-0.28-12.377c-1.971-5.064-9.284-8.721-14.348-9.003
			C61.705,17.873,60.579,24.344,61.985,28c1.688,4.219,8.721,8.439,12.942,8.439"/>
	</g>
	<g>
		<path fill="#8DC63F" d="M84.41,37.795c0.731-3.419-1.222-7.327,0.244-10.745c1.711-4.396,8.059-7.571,12.457-7.815
			c0.488,3.175,1.463,8.792,0.244,11.966c-1.467,3.663-7.572,7.327-11.234,7.327"/>
	</g>
	<g>
		<path fill="#8DC63F" d="M73.521,86.949c-7.597-8.902-11.254-19.545-1.125-28.254c4.781-4.065,9.845-6.966,11.251-12.192
			c0.282-1.548,0-3.097,0.282-4.451c0.563-2.709,1.687-3.097,3.377-5.418c-3.094-0.968-3.377,2.321-6.19,2.129
			c-3.096-0.388-3.657-4.646-7.033-2.904c1.969,2.323,6.19,3.483,6.47,6.968c0,2.516-3.094,5.031-5.345,6.967
			c-5.344,4.063-10.69,7.159-12.66,12.579c-1.407,4.258-1.407,8.321-0.843,12.578c0.28,1.742,0.562,3.87,0.28,5.807
			c-0.28,2.903-1.135,8.991,3.366,10.151c2.533,0.581,5.354,1.009,7.887-1.524"/>
	</g>
</g>
</svg>
