<svg xmlns="http://www.w3.org/2000/svg" width="130" height="125"><path fill="#fff" d="M4.621 124.666l17.612-89.179s6.895-35.111 42.425-35.111c35.529 0 42.007 34.274 42.007 34.274l17.211 90.015"/><path d="M58.639.732c-9.964 1.267-14.039 26.929 21.151 26.929 0 0-27.519-9.284-2.953-25.765 0 0-3.888-1.289-8.957-1.423-4.419-.117-6.922-.036-9.241.259z"/><polygon points="20.944,42.011 108.072,42.011 108.897,46.33 20.091,46.33"/><path stroke="#000" stroke-miterlimit="10" d="M20.479 46.33s-1.958 27.398 45.215 27.398c43.204 0 42.685-27.398 42.685-27.398" fill="none"/><path d="M44.274 71.229s1.551-18.667 19.78-18.667c18.229 0 20.168 18.667 20.168 18.667l-19.975 39.561-19.973-39.561z"/></svg>