<svg xmlns="http://www.w3.org/2000/svg" width="40" height="40"><g><path fill="#fff" d="M20 14.622c-2.97 0-5.379 2.408-5.379 5.378s2.409 5.378 5.379 5.378c2.97 0 5.378-2.408 5.378-5.378s-2.407-5.378-5.378-5.378zm2.586 5.652c-.07-.533-.508-.951-1.061-.951-.602 0-1.089.487-1.089 1.089s.487 1.089 1.089 1.089c.375 0 .689-.201.885-.49-.395.941-1.325 1.602-2.41 1.602-1.443 0-2.613-1.17-2.613-2.612 0-1.443 1.17-2.613 2.613-2.613s2.613 1.17 2.613 2.613l-.027.273z"/><path d="M21.524 21.502c-.602 0-1.089-.487-1.089-1.089s.487-1.089 1.089-1.089c.553 0 .99.418 1.061.951l.028-.275c0-1.443-1.17-2.613-2.613-2.613s-2.613 1.17-2.613 2.613 1.17 2.613 2.613 2.613c1.084 0 2.015-.66 2.409-1.602-.195.29-.51.491-.885.491z"/><path opacity=".5" d="M20 12.964c-6.627 0-12 6-12 7.036s5.373 7.036 12 7.036 12-5.822 12-7.036-5.373-7.036-12-7.036zm0 12.346c-2.97 0-5.379-2.409-5.379-5.379s2.409-5.378 5.379-5.378c2.97 0 5.378 2.408 5.378 5.378s-2.407 5.379-5.378 5.379z"/></g></svg>