<svg xmlns="http://www.w3.org/2000/svg" width="45" height="45"><circle cx="22.5" cy="22.56" r="22.5"/><g fill="#fff"><path d="M36.285 13.56c0 1.478-1.198 2.676-2.677 2.676h-22.215c-1.479 0-2.677-1.198-2.677-2.676 0-1.479 1.198-2.677 2.677-2.677h22.216c1.478 0 2.676 1.199 2.676 2.677zM36.285 22.56c0 1.479-1.198 2.676-2.677 2.676h-22.215c-1.479 0-2.677-1.197-2.677-2.676s1.198-2.677 2.677-2.677h22.216c1.478 0 2.676 1.199 2.676 2.677zM36.285 31.561c0 1.479-1.198 2.676-2.677 2.676h-22.215c-1.479 0-2.677-1.197-2.677-2.676s1.198-2.678 2.677-2.678h22.216c1.478 0 2.676 1.199 2.676 2.678z"/></g></svg>