<svg xmlns="http://www.w3.org/2000/svg" width="17" height="17"><circle fill="#fff" cx="8.5" cy="8.5" r="8.5"/><path fill="#231F20" d="M7.2 10.8c-.1-.6 0-1.1.1-1.6.1-.4.3-.8.5-1.1l.6-.6.7-.6c.2-.2.4-.4.5-.6.1-.2.2-.4.2-.7 0-.4-.1-.7-.3-.9-.1-.2-.5-.3-1.1-.3-.2 0-.4 0-.6.1-.2 0-.4.1-.6.2-.1.1-.3.2-.5.3s-.4.2-.5.3l-.8-1.8c.4-.3.9-.5 1.4-.7.5-.2 1.2-.3 2-.3 1 0 1.8.3 2.4.8.6.5.9 1.2.9 2.1 0 .6-.1 1.1-.2 1.5s-.3.7-.6.9c-.2.2-.5.5-.7.6-.3.2-.5.4-.7.6-.3.1-.5.4-.6.7-.1.3-.2.7-.2 1.2h-1.9z"/><circle fill="#808080" cx="8.2" cy="13.3" r="1.6"/></svg>