<?xml version="1.0" encoding="utf-8"?>
<!-- Generator: Adobe Illustrator 15.0.0, SVG Export Plug-In . SVG Version: 6.00 Build 0)  -->
<!DOCTYPE svg PUBLIC "-//W3C//DTD SVG 1.1//EN" "http://www.w3.org/Graphics/SVG/1.1/DTD/svg11.dtd">
<svg version="1.1" xmlns="http://www.w3.org/2000/svg" xmlns:xlink="http://www.w3.org/1999/xlink" x="0px" y="0px" width="85.04px"
	 height="85.04px" viewBox="0 0 85.04 85.04" enable-background="new 0 0 85.04 85.04" xml:space="preserve">
<g id="Calque_1" display="none">
	<g display="inline">
		<path d="M42.441,51.447c9.935,0,28.542-10.724,28.542,7.254c0,17.977-28.542,15.296-28.542,15.296s-28.385-0.315-28.385-15.453
			C14.057,43.405,40.549,51.447,42.441,51.447z"/>
		<g>
			<path fill="#D1D3D4" d="M38.931,51.053c-3.058,0.582-6.842,3.057-1.893,4.658c2.038,0.582,4.221,1.02,6.404,1.02
				c2.621,0,6.987-2.621,2.912-4.949c-2.476-1.456-5.532,1.02-8.152-0.729"/>
			<g>
				<path fill="#FFFFFF" d="M38.803,50.577c-1.65,0.355-5.409,1.472-5.09,3.766c0.177,1.274,2.393,1.794,3.347,2.057
					c2.041,0.563,4.501,1.112,6.633,0.841c1.962-0.25,5.641-1.461,5.24-4.044c-0.218-1.399-2.258-2.2-3.434-2.393
					c-2.249-0.366-4.386,0.996-6.528-0.214c-0.542-0.307-2.326,0.481-1.54,0.926c1.696,0.958,3.437,0.745,5.291,0.456
					c1.603-0.249,2.839-0.037,3.993,1.192c1.152,1.227-0.673,2.378-1.621,2.771c-2.287,0.946-6.229-0.169-8.386-1.123
					c-2.955-1.307,1.022-2.998,2.35-3.283C40.239,51.274,39.963,50.328,38.803,50.577L38.803,50.577z"/>
			</g>
		</g>
		<g>
			<path d="M46.803,22.886c-0.474-2.208,0.788-4.73-0.157-6.938c-1.104-2.839-5.204-4.889-8.043-5.047
				c-0.315,2.051-0.946,5.678-0.158,7.728c0.946,2.365,4.889,4.73,7.255,4.73"/>
		</g>
		<g>
			<path d="M51.015,24.119c0.41-1.917-0.685-4.107,0.137-6.023c0.959-2.464,4.518-4.244,6.982-4.38
				c0.273,1.78,0.82,4.928,0.137,6.708c-0.822,2.053-4.244,4.107-6.297,4.107"/>
		</g>
		<g>
			<path d="M44.911,51.672c-4.259-4.99-6.309-10.956-0.632-15.838c2.681-2.278,5.52-3.905,6.308-6.834
				c0.158-0.868,0-1.736,0.158-2.495c0.315-1.519,0.945-1.736,1.893-3.037c-1.734-0.542-1.893,1.301-3.47,1.193
				c-1.735-0.217-2.05-2.604-3.942-1.627c1.104,1.302,3.47,1.953,3.627,3.906c0,1.41-1.734,2.82-2.996,3.905
				c-2.996,2.277-5.992,4.013-7.097,7.051c-0.788,2.387-0.788,4.665-0.473,7.051c0.157,0.977,0.315,2.169,0.157,3.255
				c-0.157,1.627-0.636,5.04,1.888,5.69c1.419,0.325,3.001,0.565,4.421-0.854"/>
		</g>
	</g>
</g>
<g id="Calque_2" display="none">
	<g display="inline">
		<g>
			<g>
				<path d="M28.639,26.97c0,9.48,1.138,19.719,1.896,29.197c0.379,3.412,1.137,9.48,5.309,4.551c0.758-1.139-0.758-4.172,0-5.309
					c1.896-2.275,6.825-1.518,9.101-2.654c2.654-1.518,10.237-9.859,6.067-13.272c-4.551-3.792-6.067,7.584-10.239,8.721
					c-10.617,2.654-1.896-22.372-11.755-20.855"/>
			</g>
			<g>
				<path fill="#FFFFFF" d="M29.777,14.835c-3.034,2.655-8.342,5.688-6.826,10.618c0.758,3.413,6.446,6.067,9.859,4.929
					C43.428,26.97,37.74,15.594,29.777,14.835"/>
				<g>
					<path d="M28.901,14.903c-3.602,3.061-9.14,6.582-6.415,12.047c1.997,4.006,7.728,4.701,11.464,3.375
						c9.549-3.39,5.091-14.759-3.382-15.868c-0.462-0.061-2.115,0.688-1.585,0.758c5.721,0.749,11.877,7.904,6.815,13.097
						c-3.945,4.047-10.898,1.023-12.073-3.921c-1.013-4.261,4.239-7.339,6.926-9.623C31.078,14.406,29.258,14.601,28.901,14.903
						L28.901,14.903z"/>
				</g>
			</g>
			<g>
				<path fill="#FFFFFF" d="M32.052,56.926c-7.963,0.759-8.721,13.651,0.379,13.271c9.479-0.379,7.963-11.375,0-13.65"/>
				<g>
					<path d="M32.128,56.184c-3.839,0.508-6.58,3.139-7.201,6.976c-0.65,4.015,2.118,7.235,5.998,7.742
						c3.92,0.513,8.143-1.455,8.964-5.521c0.895-4.424-3.072-8.288-6.907-9.512c-0.872-0.278-2.276,0.979-1.102,1.354
						c2.995,0.956,5.277,3.08,6.004,6.189c0.949,4.058-2.705,6.234-6.307,6.023c-6.862-0.402-5.751-10.956,0.398-11.768
						C33.066,57.523,33.438,56.011,32.128,56.184L32.128,56.184z"/>
				</g>
			</g>
		</g>
		<g>
			<path fill="#D1D3D4" d="M53.967,15.128c-0.955,0-1.837-0.408-2.205,0.488c-0.221,0.489,0,1.956,0,2.607
				c0,0.652,0.294,2.444,0,3.015c-0.367,0.734-1.396,0.489-2.205,0.57c-1.029,0-2.132-0.082-3.161,0
				c-1.176,0.164-1.176,0.245-1.249,1.63c0,0.488-0.221,2.362,0.073,2.688c0.515,0.57,3.381,0.082,4.116,0.082
				s2.059-0.245,2.5,0.326c0.367,0.57,0.294,2.282,0.294,3.015c0,0.896-0.074,1.874,0,2.77c0.073,1.385,0.073,1.304,1.249,1.385
				c0.588,0,1.544,0.244,2.059,0c0.955-0.407,0.809-1.303,0.809-2.444c0-1.222,0-2.363,0-3.503c0-1.629,0.146-1.466,1.544-1.548
				c1.103-0.082,2.572,0.163,3.603-0.163c1.249-0.326,1.028-2.281,0.734-3.585c-0.441-1.711-1.617-1.222-3.088-1.222
				c-1.029,0-2.131-0.081-3.16,0c-0.368-1.466,0.955-7.659-1.838-6.029"/>
		</g>
	</g>
</g>
<g id="Calque_3">
	<g>
		<g id="XMLID_3_">
			<g>
				<path fill="#D1D3D4" d="M39.499,41.85c-4.64-8.392-17.43-7.404-17.195-19.228c0.004-12.51,16.281-13.337,17.356-1.645
					l0.616-0.08c5.229-7.322,18.585-9.078,17.861,3.089c-0.603,7.243-12.289,16.986-18.522,18.64L39.499,41.85z"/>
			</g>
			<g>
			</g>
		</g>
		<g>
			<path stroke="#FFFFFF" stroke-miterlimit="10" stroke-dasharray="2" d="M25.958,65.711H21.78V58.18h-7.661v7.531H9.954V47.218
				h4.165v7.377h7.661v-7.377h4.178V65.711z"/>
			<path stroke="#FFFFFF" stroke-miterlimit="10" stroke-dasharray="2" d="M41.59,50.609h-5.274v15.102h-4.179V50.609h-5.249v-3.392
				H41.59V50.609z"/>
			<path stroke="#FFFFFF" stroke-miterlimit="10" stroke-dasharray="2" d="M63.567,65.711h-4.113V54.646
				c0-1.194,0.052-2.515,0.154-3.959h-0.103c-0.216,1.135-0.409,1.952-0.581,2.45l-4.333,12.574h-3.404l-4.411-12.445
				c-0.12-0.335-0.313-1.194-0.58-2.579H46.08c0.111,1.823,0.168,3.422,0.168,4.798v10.227h-3.753V47.218h6.1l3.779,10.962
				c0.301,0.877,0.52,1.758,0.657,2.644h0.077c0.232-1.022,0.478-1.913,0.735-2.669l3.778-10.937h5.945V65.711z"/>
			<path stroke="#FFFFFF" stroke-miterlimit="10" stroke-dasharray="2" d="M77.201,65.711H66.188V47.218h4.165v15.114h6.849V65.711z
				"/>
		</g>
	</g>
</g>
<g id="Calque_4" display="none">
	<g display="inline">
		<g>
			<path d="M51.579,14.667c-8.174-1.185-17.228-1.453-24.902,2.135c-8.628,4.035-13.391,11.659-15.443,20.792
				c-2.016,8.97-0.707,18.389,5.794,25.191c6,6.278,16.246,9.147,24.729,8.985c14.061-0.269,26.535-8.697,31.31-22.06
				c5.314-14.877-2.855-28.879-16.747-34.83c-1.484-0.636-3.029-1.119-4.572-1.586c-0.463-0.14-2.188,0.595-1.58,0.778
				c12.948,3.916,22.947,13.557,22.564,27.73c-0.37,13.703-11.146,25.866-24.387,28.596C31.851,73.801,13.249,63.866,12.3,46.161
				c-0.482-9.007,2.85-18.933,9.453-25.168c7.533-7.114,19.026-6.881,28.584-5.495C50.78,15.562,52.572,14.811,51.579,14.667
				L51.579,14.667z"/>
		</g>
	</g>
	<g display="inline">
		<path fill="#BCBEC0" d="M43.319,21.703c-3.386-1.03-6.329,1.62-5.447,5.151c0.442,1.62,3.387,2.944,3.092,4.269
			c-0.294,1.177-2.502,1.325-3.385,1.177c-3.238-0.442-5.594-3.68-8.096-5.298c-1.473-0.883-2.944-1.62-4.416-2.503
			c-1.473-1.03-3.826-3.68-5.445-3.68c-1.179,3.386,6.329,7.359,8.537,9.273c3.091,2.502,6.918,5.004,9.713,7.801
			c5.006,5.446-1.177,16.338-3.531,21.637c-0.589,1.619-1.472,3.387-2.208,4.857c-1.178,2.209-2.207,1.914-3.827,3.385
			c1.472,0.442,4.121,0.59,5.594,0.295c2.502-0.441,2.943-2.061,3.826-4.269c1.03-2.354,2.208-4.856,3.091-7.359
			c0.589-1.618,0.736-3.679,1.767-5.151c2.355-3.091,2.796,0.295,3.385,2.354c0.588,2.062,1.324,4.122,1.913,6.183
			c1.031,3.531,0.295,7.359,4.71,7.653c1.03,0,3.091,0.294,3.974,0c3.68-1.177-0.441-1.472-1.472-2.502
			c-0.883-0.884-1.324-4.71-1.766-6.034c-0.589-1.767-1.03-3.385-1.472-5.152c-1.03-3.385-3.238-5.74-3.386-9.272
			c0-1.325-0.441-3.68,0-4.711c0.589-1.472,2.355-1.766,3.827-2.649c2.796-1.767,4.71-4.563,7.064-6.918
			c2.208-1.913,5.594-4.857,6.182-7.801c-3.532-1.178-4.71,1.766-6.77,3.974c-2.209,2.502-5.152,4.416-8.096,5.74
			c-1.766,0.883-2.502,1.03-4.269,0.147c-2.796-1.619-0.589-1.767,0.441-3.827c1.913-3.533-0.295-5.74-3.679-6.771"/>
	</g>
</g>
</svg>
